<?xml version="1.0" encoding="UTF-8" standalone="no"?>
<!-- Created with Inkscape (http://www.inkscape.org/) -->

<svg
   xmlns:dc="http://purl.org/dc/elements/1.1/"
   xmlns:cc="http://creativecommons.org/ns#"
   xmlns:rdf="http://www.w3.org/1999/02/22-rdf-syntax-ns#"
   xmlns:svg="http://www.w3.org/2000/svg"
   xmlns="http://www.w3.org/2000/svg"
   xmlns:sodipodi="http://sodipodi.sourceforge.net/DTD/sodipodi-0.dtd"
   xmlns:inkscape="http://www.inkscape.org/namespaces/inkscape"
   width="40"
   height="40"
   viewBox="0 0 40 40.000001"
   id="svg2"
   version="1.1"
   inkscape:version="0.91 r13725"
   sodipodi:docname="Bag.svg"
   inkscape:export-filename="C:\Users\Jan-Oliver\Documents\Ambosia\Design\Icons\Bag.png"
   inkscape:export-xdpi="90"
   inkscape:export-ydpi="90">
  <defs
     id="defs4" />
  <sodipodi:namedview
     id="base"
     pagecolor="#ffffff"
     bordercolor="#666666"
     borderopacity="1.0"
     inkscape:pageopacity="0.0"
     inkscape:pageshadow="2"
     inkscape:zoom="10"
     inkscape:cx="13.3"
     inkscape:cy="16.35"
     inkscape:document-units="px"
     inkscape:current-layer="layer1"
     showgrid="false"
     units="px"
     inkscape:window-width="1920"
     inkscape:window-height="1017"
     inkscape:window-x="1272"
     inkscape:window-y="-8"
     inkscape:window-maximized="1" />
  <metadata
     id="metadata7">
    <rdf:RDF>
      <cc:Work
         rdf:about="">
        <dc:format>image/svg+xml</dc:format>
        <dc:type
           rdf:resource="http://purl.org/dc/dcmitype/StillImage" />
        <dc:title></dc:title>
      </cc:Work>
    </rdf:RDF>
  </metadata>
  <g
     inkscape:label="Ebene 1"
     inkscape:groupmode="layer"
     id="layer1"
     transform="translate(0,-1012.3622)">
    <path
       style="fill:none;fill-rule:evenodd;stroke:#c8ab37;stroke-width:1.40618527px;stroke-linecap:butt;stroke-linejoin:miter;stroke-opacity:1"
       d="m 2.694763,1050.4005 c -0.3567194,-31.5268 17.12253,-31.1804 17.12253,-31.1804"
       id="path3336"
       inkscape:connector-curvature="0" />
    <path
       style="fill:none;fill-rule:evenodd;stroke:#c8ab37;stroke-width:1.40618527px;stroke-linecap:butt;stroke-linejoin:miter;stroke-opacity:1"
       d="m 36.873076,1050.4659 c 0.356719,-31.5268 -17.12253,-31.1804 -17.12253,-31.1804"
       id="path3336-9"
       inkscape:connector-curvature="0" />
    <path
       style="fill:none;fill-rule:evenodd;stroke:#c8ab37;stroke-width:1.40618527px;stroke-linecap:butt;stroke-linejoin:miter;stroke-opacity:1"
       d="m 19.246542,1047.7675 c -16.551779,-0.2772 -16.8371545,2.2172 -16.8371545,2.2172"
       id="path3355"
       inkscape:connector-curvature="0" />
    <path
       style="fill:none;fill-rule:evenodd;stroke:#c8ab37;stroke-width:1.40618527px;stroke-linecap:butt;stroke-linejoin:miter;stroke-opacity:1"
       d="m 19.611592,1047.7267 c 16.551779,-0.2771 16.837155,2.2173 16.837155,2.2173"
       id="path3355-1"
       inkscape:connector-curvature="0" />
    <path
       style="fill:none;fill-rule:evenodd;stroke:#c8ab37;stroke-width:1.40618527px;stroke-linecap:butt;stroke-linejoin:miter;stroke-opacity:1"
       d="m 17.534289,1047.4903 4.280632,0.2772"
       id="path3374"
       inkscape:connector-curvature="0" />
    <path
       style="fill:none;fill-rule:evenodd;stroke:#c8ab37;stroke-width:1.40618527px;stroke-linecap:butt;stroke-linejoin:miter;stroke-opacity:1"
       d="m 15.822036,1014.7856 c 0.285375,5.266 2.283004,4.1574 2.283004,4.1574"
       id="path3378"
       inkscape:connector-curvature="0" />
    <path
       style="fill:none;fill-rule:evenodd;stroke:#c8ab37;stroke-width:1.40618527px;stroke-linecap:butt;stroke-linejoin:miter;stroke-opacity:1"
       d="m 23.633307,1014.5601 c -0.285376,5.266 -2.283004,4.1574 -2.283004,4.1574"
       id="path3378-2"
       inkscape:connector-curvature="0" />
    <path
       style="fill:none;fill-rule:evenodd;stroke:#c8ab37;stroke-width:1.40618527px;stroke-linecap:butt;stroke-linejoin:miter;stroke-opacity:1"
       d="m 15.822036,1015.3399 c 7.990513,-0.2772 7.990513,-0.2772 7.990513,-0.2772"
       id="path3397"
       inkscape:connector-curvature="0" />
    <path
       style="fill:#c8ab37;stroke:#c8ab37;stroke-width:0.2"
       d=""
       id="path3405"
       inkscape:connector-curvature="0"
       transform="translate(0,1012.3622)" />
    <path
       style="fill:#c8ab37;stroke:#c8ab37;stroke-width:0.28123704"
       d="m 34.629111,1048.08 c -1.890028,-0.663 -4.926577,-0.9865 -11.005089,-1.1723 -6.492569,-0.1984 -15.3740641,0.2323 -18.2927034,0.8871 l -1.7933564,0.4024 0.1770399,-3.229 c 0.3552164,-6.4786 1.9162305,-12.6318 4.2293073,-16.6711 1.5302704,-2.6723 4.6348646,-5.7247 7.0026576,-6.8851 2.455617,-1.2034 4.0653,-1.5127 6.033684,-1.1593 4.557774,0.8183 8.642205,4.186 11.151453,9.1949 1.666133,3.3257 2.711598,6.8801 3.289249,11.183 0.479916,3.575 0.749063,7.9129 0.488075,7.8668 -0.100352,-0.018 -0.676491,-0.2057 -1.280317,-0.4174 z"
       id="path3411"
       inkscape:connector-curvature="0" />
    <path
       style="fill:#c8ab37;stroke:#c8ab37;stroke-width:0.28123704"
       d="m 17.476737,1017.9395 c -0.210335,-0.3245 -0.468661,-0.8708 -0.574059,-1.2138 -0.183612,-0.5976 -0.120813,-0.6236 1.50002,-0.6236 0.930409,0 2.302302,-0.082 3.04865,-0.1807 1.330244,-0.177 1.35307,-0.1674 1.157814,0.485 -0.109555,0.3661 -0.427057,0.9775 -0.705569,1.3586 -0.440727,0.6031 -0.735767,0.6977 -2.275409,0.7288 -1.517612,0.031 -1.823372,-0.048 -2.151447,-0.5543 z"
       id="path3413"
       inkscape:connector-curvature="0" />
    <path
       style="fill:#c8ab37;stroke:#c8ab37;stroke-width:0.28123704"
       d="m 36.15504,1050.2473 c 0,-0.327 -2.43802,-1.1032 -4.566008,-1.4534 -1.020218,-0.1679 -5.001206,-0.3737 -8.846641,-0.4573 -9.972937,-0.2169 -17.8354215,0.4284 -19.2652326,1.5808 -0.2190417,0.1765 -0.6239657,0.2788 -0.8998311,0.2271 -0.4425216,-0.083 -0.4933746,-0.4035 -0.4319341,-2.7252 0.2182884,-8.2481 1.8102469,-14.9902 4.7415286,-20.0809 1.9233153,-3.3402 6.2379012,-7.1578 8.7924262,-7.7794 0.927051,-0.2258 0.89622,-0.1068 0.317533,-1.2327 -0.256986,-0.5003 -0.529798,-1.4486 -0.606247,-2.1072 -0.126222,-1.0876 -0.07671,-1.2103 0.538593,-1.333 1.4552,-0.2905 7.545873,-0.431 7.945593,-0.1834 0.355297,0.2202 0.367095,0.4999 0.07761,1.8403 -0.187759,0.8694 -0.541724,1.7956 -0.786591,2.0585 -0.41346,0.4437 -0.287668,0.5504 1.763818,1.4967 1.738798,0.8019 2.699695,1.5027 4.514054,3.2923 4.683432,4.6194 7.132074,11.3164 7.841623,21.4467 0.409916,5.8522 0.426174,5.6326 -0.416854,5.6326 -0.392391,0 -0.713438,-0.1 -0.713438,-0.2225 z m -32.4707642,-3.3109 c -0.1407058,-2.7813 -0.2605171,-3.0539 -0.3046596,-0.6933 -0.023516,1.2576 0.053556,2.2867 0.1712733,2.287 0.1177173,10e-5 0.1777412,-0.717 0.1333859,-1.5937 z m 2.4290473,0.8715 c -0.09483,-0.093 -0.3409638,-0.1025 -0.5469692,-0.022 -0.227654,0.089 -0.1600315,0.1541 0.1724139,0.1674 0.3008342,0.014 0.4693841,-0.054 0.3745553,-0.1456 l 0,0 z m 25.8324279,-0.2933 c -0.196196,-0.076 -0.517243,-0.076 -0.713439,0 -0.196195,0.076 -0.03567,0.1398 0.35672,0.1398 0.392391,0 0.552915,-0.062 0.356719,-0.1398 z m -20.832411,-0.2772 c -0.196196,-0.076 -0.517243,-0.076 -0.713439,0 -0.196195,0.078 -0.03567,0.1398 0.35672,0.1398 0.392391,0 0.552915,-0.062 0.356719,-0.1398 z m 17.978656,0 c -0.196196,-0.076 -0.517243,-0.076 -0.713439,0 -0.196195,0.078 -0.03567,0.1398 0.35672,0.1398 0.392391,0 0.552915,-0.062 0.356719,-0.1398 z m -11.981847,-0.2887 c -0.350994,-0.065 -0.993089,-0.068 -1.426877,0 -0.433789,0.064 -0.146612,0.1178 0.638171,0.1192 0.784782,0 1.1397,-0.05 0.788706,-0.1164 l 0,0 z m 6.274337,-0.014 c -0.667065,-0.058 -1.758626,-0.058 -2.425691,0 -0.667066,0.058 -0.121285,0.1067 1.212845,0.1067 1.334131,0 1.879911,-0.047 1.212846,-0.1067 z m 12.691619,-2.9152 c -0.06331,-0.4954 -0.115107,-0.09 -0.115107,0.9008 0,0.9908 0.0518,1.3962 0.115107,0.9008 0.0633,-0.4955 0.0633,-1.3062 0,-1.8016 z M 3.8270134,1041.951 c -0.065595,-0.4214 -0.1210164,-0.1424 -0.1231581,0.6197 -0.00214,0.7622 0.051526,1.1069 0.1192627,0.7661 0.067737,-0.3409 0.06949,-0.9645 0.0039,-1.3858 z m 31.9586736,-0.6968 c -0.06802,-0.343 -0.123668,-0.062 -0.123668,0.6236 0,0.686 0.05565,0.9666 0.123668,0.6236 0.06802,-0.3429 0.06802,-0.9042 0,-1.2472 z m -31.6813616,-1.5243 c -0.071779,-0.2668 -0.1305093,-0.049 -0.1305093,0.485 0,0.5335 0.058729,0.7518 0.1305093,0.485 0.071781,-0.2667 0.071781,-0.7033 0,-0.97 z m 31.3913056,-0.5544 c -0.07179,-0.2667 -0.130517,-0.049 -0.130517,0.4851 0,0.5335 0.05873,0.7518 0.130517,0.485 0.07177,-0.2668 0.07177,-0.7033 0,-0.9701 z m -29.2234351,-7.2939 c 0.3902981,-1.001 0.9868356,-2.3729 1.3256362,-3.0488 0.3388021,-0.6757 0.4217165,-0.9919 0.1842542,-0.7027 -1.1057644,1.3468 -3.6281616,8.7863 -3.5691685,10.5266 0.010958,0.3234 0.3191183,-0.6591 0.6847899,-2.1835 0.3656701,-1.5243 0.9841901,-3.5905 1.3744882,-4.5916 z m 28.9303401,5.7696 c -0.07916,-0.1906 -0.143941,-0.035 -0.143941,0.3464 0,0.3811 0.06478,0.537 0.143941,0.3465 0.07916,-0.1906 0.07916,-0.5024 0,-0.6929 z m -0.608669,-2.5719 c -0.278629,-0.9997 -0.556673,-1.769 -0.617875,-1.7095 -0.0612,0.06 0.111083,0.9314 0.38286,1.9377 0.271774,1.0064 0.549819,1.7758 0.617875,1.7097 0.06806,-0.066 -0.104233,-0.9382 -0.38286,-1.9379 z m -1.114337,-3.3585 c -0.473095,-1.3022 -1.910954,-4.0572 -2.727025,-5.225 -1.286359,-1.8407 -4.180452,-4.3383 -6.118016,-5.2797 -1.08283,-0.5262 -2.176262,-0.9537 -2.429846,-0.9501 -0.253586,0 0.248342,0.2902 1.115395,0.6366 4.155855,1.6606 7.627775,5.3507 9.578964,10.1807 0.820027,2.03 1.263135,2.5165 0.580528,0.6375 z M 11.476714,1023.99 c 0.96405,-0.9206 2.472987,-2.0401 3.353192,-2.4878 0.880207,-0.4474 1.556551,-0.8562 1.502987,-0.9082 -0.05356,-0.053 -0.777427,0.24 -1.608588,0.6491 -1.769408,0.8708 -4.534638,3.3392 -5.7287308,5.1139 -0.7956041,1.1823 -0.7984849,1.1967 -0.055449,0.2771 0.431074,-0.5335 1.5725378,-1.7234 2.5365878,-2.6441 z m 7.056389,-3.9141 c -0.196196,-0.076 -0.517243,-0.076 -0.713439,0 -0.196196,0.076 -0.03567,0.1398 0.356719,0.1398 0.392392,0 0.552915,-0.062 0.35672,-0.1398 z m 2.853755,0 c -0.196196,-0.076 -0.517243,-0.076 -0.713439,0 -0.196196,0.076 -0.03567,0.1398 0.356719,0.1398 0.392392,0 0.552915,-0.062 0.35672,-0.1398 z m -1.520751,-0.7172 c -0.01505,-0.4167 -0.07659,-0.4857 -0.185478,-0.2079 -0.08962,0.2287 -0.304217,0.5074 -0.476878,0.6193 -0.193637,0.1262 -0.122569,0.2053 0.185478,0.2079 0.335522,0 0.492015,-0.2004 0.476878,-0.6193 z m -1.658312,-0.8718 c -0.375115,-0.2019 -0.852136,-0.6652 -1.060046,-1.0295 -0.20791,-0.3643 -0.382569,-0.5233 -0.388131,-0.3534 -0.01729,0.5284 1.147999,1.7702 1.65151,1.7598 0.351515,-0.014 0.297494,-0.1067 -0.203333,-0.3769 z m 3.795789,-0.4659 c 0.406345,-0.4691 0.733666,-0.9992 0.727381,-1.1779 -0.0063,-0.1789 -0.203884,0.019 -0.43911,0.4405 -0.235227,0.4212 -0.840074,0.9411 -1.344107,1.1554 -0.752075,0.3197 -0.805821,0.3935 -0.299697,0.4121 0.358122,0.014 0.926522,-0.335 1.355533,-0.8301 z m -1.97226,-2.0305 c 0.313913,-0.05 -0.360286,-0.1067 -1.498221,-0.1275 -1.137935,-0.021 -2.069052,0.055 -2.069149,0.1702 -1.65e-4,0.1924 2.249593,0.1658 3.56737,-0.042 z"
       id="path3415"
       inkscape:connector-curvature="0" />
    <path
       style="fill:#c8ab37;stroke:#c8ab37;stroke-width:0.28123704"
       d="m 35.998083,1050.2198 c -0.519583,-0.4792 -2.956048,-1.1171 -5.388511,-1.4106 -3.225724,-0.3893 -18.364289,-0.3824 -21.9831524,0.014 -1.5640018,0.1696 -3.3618674,0.4989 -3.9952569,0.7319 -0.6333895,0.2328 -1.4726645,0.4412 -1.8650559,0.4631 l -0.7134387,0.04 0.085437,-3.1873 c 0.2208214,-8.238 2.2441734,-16.1746 5.1992004,-20.3941 2.1379975,-3.0527 4.9801165,-5.5868 7.4183005,-6.6141 0.704254,-0.2967 1.326167,-0.5698 1.382029,-0.6068 0.05586,-0.037 -0.114321,-0.6163 -0.378181,-1.2873 -0.263861,-0.671 -0.437986,-1.6452 -0.386943,-2.1647 l 0.0928,-0.9449 2.425692,-0.2161 c 1.33413,-0.1192 3.260415,-0.1813 4.280632,-0.1386 l 1.854941,0.078 -0.03509,1.4007 c -0.01929,0.7704 -0.238527,1.7829 -0.487175,2.2499 l -0.452087,0.849 1.096728,0.4804 c 2.928403,1.2824 5.92575,3.9 8.037144,7.0186 3.099574,4.5782 4.833758,11.1637 5.288382,20.0825 l 0.194257,3.8109 -0.699774,0 c -0.384878,0 -0.821776,-0.1122 -0.970885,-0.25 z"
       id="path3417"
       inkscape:connector-curvature="0" />
    <path
       style="fill:#a0892c;fill-rule:evenodd;stroke:#a0892c;stroke-width:1.46418309px;stroke-linecap:butt;stroke-linejoin:miter;stroke-opacity:1"
       d="m 15.892583,1018.943 c 0.508626,0 1.017253,0 1.525879,0 1.356337,0 2.712674,0 4.069009,0 0.452113,0 0.904224,0 1.356337,0 0.05652,0 0.113037,0 0.169542,0 0.05652,0 0.169543,-0.042 0.169543,0 0,0.042 -0.113038,0 -0.169543,0"
       id="path3419"
       inkscape:connector-curvature="0" />
    <path
       style="fill:none;fill-rule:evenodd;stroke:#a0892c;stroke-width:1.40618527px;stroke-linecap:butt;stroke-linejoin:miter;stroke-opacity:1"
       d="M 4.1216404,1047.6289 C 7.1180831,1020.7445 17.676976,1021.576 17.676976,1021.576"
       id="path3425"
       inkscape:connector-curvature="0" />
    <path
       style="fill:none;fill-rule:evenodd;stroke:#a0892c;stroke-width:1.40618527px;stroke-linecap:butt;stroke-linejoin:miter;stroke-opacity:1"
       d="m 34.687719,1047.661 c -2.996443,-26.8844 -13.555336,-26.0529 -13.555336,-26.0529"
       id="path3425-9"
       inkscape:connector-curvature="0" />
    <path
       style="fill:#c8ab37;fill-rule:evenodd;stroke:#a0892c;stroke-width:1.40618527px;stroke-linecap:butt;stroke-linejoin:miter;stroke-opacity:1"
       d="m 11.969466,1046.3817 c 0.428064,-22.4499 6.563637,-22.727 6.563637,-22.727"
       id="path3442"
       inkscape:connector-curvature="0" />
    <path
       style="fill:none;fill-rule:evenodd;stroke:#a0892c;stroke-width:1.40618527px;stroke-linecap:butt;stroke-linejoin:miter;stroke-opacity:1"
       d="m 27.0406,1046.4442 c -0.428063,-22.4499 -6.563636,-22.727 -6.563636,-22.727"
       id="path3442-3"
       inkscape:connector-curvature="0" />
  </g>
</svg>
