<?xml version="1.0" encoding="UTF-8" standalone="no"?>
<!-- Created with Inkscape (http://www.inkscape.org/) -->

<svg
   xmlns:dc="http://purl.org/dc/elements/1.1/"
   xmlns:cc="http://creativecommons.org/ns#"
   xmlns:rdf="http://www.w3.org/1999/02/22-rdf-syntax-ns#"
   xmlns:svg="http://www.w3.org/2000/svg"
   xmlns="http://www.w3.org/2000/svg"
   xmlns:sodipodi="http://sodipodi.sourceforge.net/DTD/sodipodi-0.dtd"
   xmlns:inkscape="http://www.inkscape.org/namespaces/inkscape"
   width="128"
   height="64"
   viewBox="0 0 128 64.000001"
   id="svg2"
   version="1.1"
   inkscape:version="0.91 r13725"
   sodipodi:docname="Red Explosion Star.svg"
   inkscape:export-filename="C:\Users\Jan-Oliver\Documents\Ambosia\Design\Icons\Red Explosion Star.png"
   inkscape:export-xdpi="90"
   inkscape:export-ydpi="90">
  <defs
     id="defs4" />
  <sodipodi:namedview
     id="base"
     pagecolor="#ffffff"
     bordercolor="#666666"
     borderopacity="1.0"
     inkscape:pageopacity="0.0"
     inkscape:pageshadow="2"
     inkscape:zoom="3"
     inkscape:cx="22.047619"
     inkscape:cy="36"
     inkscape:document-units="px"
     inkscape:current-layer="layer1"
     showgrid="false"
     units="px"
     inkscape:window-width="1920"
     inkscape:window-height="1017"
     inkscape:window-x="1272"
     inkscape:window-y="-8"
     inkscape:window-maximized="1" />
  <metadata
     id="metadata7">
    <rdf:RDF>
      <cc:Work
         rdf:about="">
        <dc:format>image/svg+xml</dc:format>
        <dc:type
           rdf:resource="http://purl.org/dc/dcmitype/StillImage" />
        <dc:title></dc:title>
      </cc:Work>
    </rdf:RDF>
  </metadata>
  <g
     inkscape:label="Ebene 1"
     inkscape:groupmode="layer"
     id="layer1"
     transform="translate(0,-988.36216)">
    <path
       sodipodi:type="star"
       style="fill:#aa0000;fill-opacity:1;stroke:none"
       id="path4140"
       sodipodi:sides="16"
       sodipodi:cx="61.666668"
       sodipodi:cy="1021.3622"
       sodipodi:r1="33.208099"
       sodipodi:r2="25.697138"
       sodipodi:arg1="0.62141635"
       sodipodi:arg2="0.81199248"
       inkscape:flatsided="false"
       inkscape:rounded="0"
       inkscape:randomized="0"
       d="m 88.666669,1040.6955 -9.318984,-0.6859 -0.134815,9.5467 -8.347113,-4.2 -3.777937,8.7685 -6.104469,-7.0746 -6.845902,6.6553 -2.932475,-8.8721 -8.87164,3.5288 0.685961,-9.319 -9.546752,-0.1348 4.199966,-8.3471 -8.768457,-3.778 7.074565,-6.1044 -6.655244,-6.8459 8.872124,-2.9325 -3.52883,-8.8717 9.318984,0.686 0.134815,-9.54674 8.347113,4.19996 3.777937,-8.76845 6.104469,7.07456 6.845902,-6.65524 2.932475,8.87212 8.87164,-3.52883 -0.685961,9.31902 9.546752,0.1348 -4.199966,8.3471 8.768456,3.7779 -7.074564,6.1045 6.655244,6.8459 -8.872125,2.9325 z"
       transform="matrix(1.9512875,0,0,0.96947741,-56.496063,30.174623)" />
  </g>
</svg>
